<svg xmlns="http://www.w3.org/2000/svg" viewBox="0 0 83.46 68.88"><title>movie logo</title><g id="Layer_2" data-name="Layer 2"><g id="Layer_1-2" data-name="Layer 1"><path d="M34.44,63.48a10.88,10.88,0,1,0-10.12-7A10.84,10.84,0,0,0,34.44,63.48Zm0-4.78A24.27,24.27,0,0,0,40.12,58a7.8,7.8,0,0,1-11.36,0A24.34,24.34,0,0,0,34.44,58.7Z"/><path d="M26.91,34.44A10.8,10.8,0,1,0,16.08,45.27,10.84,10.84,0,0,0,26.91,34.44Zm-18.67,0a7.81,7.81,0,0,1,2.65-5.86,24.3,24.3,0,0,0,0,11.72A7.81,7.81,0,0,1,8.25,34.44Z"/><path d="M34.44,26.76A10.81,10.81,0,1,0,23.61,15.93,10.85,10.85,0,0,0,34.44,26.76Zm0-18.67a7.82,7.82,0,0,1,6,2.85,24.42,24.42,0,0,0-12.08,0A7.82,7.82,0,0,1,34.44,8.09Z"/><path d="M42,34.44A10.8,10.8,0,1,0,52.8,23.61,10.85,10.85,0,0,0,42,34.44Zm18.67,0A7.81,7.81,0,0,1,58,40.3a24.3,24.3,0,0,0,0-11.72A7.81,7.81,0,0,1,60.63,34.44Z"/><path d="M29,34.44A5.48,5.48,0,1,0,34.44,29,5.49,5.49,0,0,0,29,34.44Zm8,0A2.48,2.48,0,1,1,34.44,32,2.48,2.48,0,0,1,36.92,34.44Z"/><path d="M83.46,33.93a1.5,1.5,0,0,0-3,0,31.94,31.94,0,0,1-31.89,31.9,34.42,34.42,0,1,0-14.13,3c.58,0,1.16,0,1.73,0H48.56A34.94,34.94,0,0,0,83.46,33.93ZM3,34.44a31.44,31.44,0,1,1,33.09,31.4H34.44a1.54,1.54,0,0,0-.32,0A31.47,31.47,0,0,1,3,34.44Z"/></g></g></svg>